<?xml version="1.0" encoding="UTF-8"?><svg id="Layer_2" xmlns="http://www.w3.org/2000/svg" viewBox="0 0 131.75 136.19"><defs><style>.cls-1{fill:#fccc6c;}</style></defs><g id="_ëîé_1"><g><path class="cls-1" d="M117.97,83.92c-7.61,0-13.77-6.17-13.77-13.77s6.17-13.77,13.77-13.77,13.77,6.17,13.77,13.77-6.17,13.77-13.77,13.77Z"/><path class="cls-1" d="M65.87,83.92c-7.61,0-13.77-6.17-13.77-13.77s6.17-13.77,13.77-13.77,13.77,6.17,13.77,13.77-6.17,13.77-13.77,13.77Z"/><path class="cls-1" d="M65.87,27.55c-7.61,0-13.77-6.17-13.77-13.77S58.27,0,65.87,0s13.77,6.17,13.77,13.77-6.17,13.77-13.77,13.77Z"/><path class="cls-1" d="M65.87,136.19c-7.61,0-13.77-6.17-13.77-13.77s6.17-13.77,13.77-13.77,13.77,6.17,13.77,13.77-6.17,13.77-13.77,13.77Z"/><path class="cls-1" d="M13.77,83.92c-7.61,0-13.77-6.17-13.77-13.77s6.17-13.77,13.77-13.77,13.77,6.17,13.77,13.77-6.17,13.77-13.77,13.77Z"/></g></g></svg>