<?xml version="1.0" encoding="UTF-8"?><svg id="_ëîé_1" xmlns="http://www.w3.org/2000/svg" viewBox="0 0 1232.82 1235.36"><defs><style>.cls-1{fill:#fccc6c;}.cls-2{fill:#fff;}.cls-3{fill:#44d4f4;}.cls-4{fill:#fc346c;}.cls-5{fill:#1f9dcb;}.cls-6{fill:#240448;}</style></defs><g><circle class="cls-5" cx="613.99" cy="616.75" r="516.64"/><circle class="cls-2" cx="613.99" cy="616.75" r="393.58"/><circle class="cls-2" cx="613.99" cy="616.75" r="393.58"/><rect class="cls-5" x="503.61" y="6.6" width="124.96" height="144.59" transform="translate(-4.77 50.54) rotate(-5.09)"/><rect class="cls-5" x="709.69" y="41.12" width="144.59" height="124.96" transform="translate(440.19 814.52) rotate(-71.87)"/><polygon class="cls-5" points="972.11 293.41 867.95 219.51 961.53 108.8 1056.96 189.47 972.11 293.41"/><polygon class="cls-5" points="993.93 336.95 1054.06 446.5 1188.4 362.47 1130.79 261.84 993.93 336.95"/><rect class="cls-5" x="1076.47" y="478.81" width="144.59" height="124.96" transform="translate(-64.41 165.99) rotate(-8.04)"/><rect class="cls-5" x="1075.13" y="676.27" width="124.96" height="144.59" transform="translate(133.98 1669.02) rotate(-75.87)"/><rect class="cls-5" x="991.13" y="857.97" width="124.96" height="144.59" transform="translate(-315.57 1247.81) rotate(-54.5)"/><rect class="cls-5" x="836.7" y="1003.02" width="124.96" height="144.59" transform="translate(-432.28 637.1) rotate(-31.88)"/><rect class="cls-5" x="623.09" y="1079.7" width="124.96" height="144.59" transform="translate(-146.7 101.08) rotate(-7.62)"/><rect class="cls-5" x="383.26" y="1070.51" width="144.59" height="124.96" transform="translate(-761.23 1236.11) rotate(-72.94)"/><rect class="cls-5" x="188.78" y="963.01" width="144.59" height="124.96" transform="translate(-685.81 553.05) rotate(-49.2)"/><rect class="cls-5" x="52.59" y="783.08" width="144.59" height="124.96" transform="translate(-346.52 132.57) rotate(-25.07)"/><rect class="cls-5" x="1.98" y="571.71" width="144.59" height="124.96" transform="translate(-20.43 2.73) rotate(-1.85)"/><rect class="cls-5" x="46.04" y="354.37" width="124.96" height="144.59" transform="translate(-329.04 378.06) rotate(-69.39)"/><rect class="cls-5" x="147.46" y="186.21" width="124.96" height="144.59" transform="translate(-122.76 244.1) rotate(-48.44)"/><rect class="cls-5" x="302.18" y="65.49" width="124.96" height="144.59" transform="translate(-22.42 183.95) rotate(-27.5)"/><circle class="cls-3" cx="613.97" cy="616.74" r="16.18"/></g><path class="cls-6" d="M107.6,533.23l-6.98-1.15c4.02-24.51,9.86-48.9,17.37-72.55l-90.48-41.94,55.53-119.79,90.59,42c2.93-4.65,5.94-9.27,8.97-13.78,7.67-11.38,15.89-22.6,24.48-33.4l-69.57-71.61,94.7-92,69.48,71.52c15.34-11.51,31.48-22.27,48.05-32.02l-39.34-91.65,121.33-52.08,39.39,91.76c22.73-6.48,46.06-11.45,69.44-14.79l-1.43-99.85,132.02-1.9,1.43,99.74c25.94,2.92,51.8,7.84,76.98,14.63l37.99-92.2,122.07,50.3-39.23,95.19-6.54-2.69,36.53-88.66-109-44.92-37.68,91.44-3.02-.83c-26.76-7.4-54.35-12.64-81.98-15.59l-3.12-.33-1.42-98.93-117.88,1.69,1.42,99.03-3.1,.42c-25.11,3.43-50.19,8.77-74.53,15.87l-3,.88-39.06-91-108.34,46.5,39.02,90.91-2.71,1.57c-18.17,10.55-35.84,22.32-52.52,35l-2.49,1.89-68.92-70.94-84.56,82.15,68.99,71.02-1.96,2.44c-9.17,11.39-17.94,23.29-26.08,35.37-3.56,5.29-7.09,10.74-10.49,16.21l-1.65,2.66-89.85-41.65-49.59,106.96,89.74,41.6-.97,2.98c-7.86,24.24-13.94,49.31-18.07,74.5l.04,.02Z"/><path class="cls-6" d="M584.09,1235.34l-5.84-99.61c-30.48-2.07-60.88-6.86-90.47-14.25l-36.27,92.89-122.99-48.02,36.3-92.99c-14.18-7.76-28.14-16.26-41.54-25.28-9.45-6.37-18.85-13.17-27.98-20.23l-70.69,70.51-93.25-93.47,72.81-72.63,4.99,5-67.8,67.64,83.26,83.47,70.1-69.93,2.46,1.93c9.77,7.65,19.88,15,30.05,21.85,14.07,9.48,28.77,18.37,43.69,26.42l2.75,1.48-36,92.22,109.82,42.88,35.97-92.13,3.03,.78c31.12,7.98,63.19,13.03,95.31,15.02l3.13,.19,5.79,98.79,117.69-6.89-5.79-98.87,3.08-.56c30.42-5.53,60.5-13.85,89.39-24.72l2.93-1.1,45.88,87.72,104.47-54.65-45.84-87.63,2.58-1.78c21.38-14.72,41.83-31.25,60.76-49.11l2.28-2.15,76.05,63.28,75.41-90.62-76.13-63.35,1.7-2.63c12.11-18.77,23.08-38.43,32.58-58.43l1.34-2.82,93.91,31.24,37.21-111.87-93.85-31.22,.62-3.07c4.88-24.14,8.04-48.86,9.38-73.48l.17-3.13,98.76-6.51-7.98-121.17,7.05-.46,8.45,128.22-99.57,6.56c-1.39,22.88-4.32,45.83-8.72,68.3l94.63,31.48-41.67,125.28-94.69-31.5c-8.87,18.37-18.94,36.43-29.98,53.77l76.76,63.88-84.45,101.49-76.67-63.8c-17.79,16.58-36.85,31.99-56.74,45.87l46.22,88.36-116.99,61.2-46.27-88.45c-27.42,10.13-55.85,17.99-84.61,23.4l5.84,99.69-131.81,7.72v-.02Z"/><polygon class="cls-1" points="468.41 339.13 475.46 352.46 488.37 359.75 475.46 367.04 468.41 380.36 461.35 367.04 448.45 359.75 461.35 352.46 468.41 339.13"/><polygon class="cls-3" points="832.06 697.69 839.12 711.02 852.02 718.31 839.12 725.6 832.06 738.93 825 725.6 812.1 718.31 825 711.02 832.06 697.69"/><path class="cls-4" d="M558.57,959.16c-.95,0-1.89-.38-2.59-1.12l-24.88-26.68c-1.33-1.43-1.25-3.66,.17-5,1.43-1.33,3.66-1.25,5,.17l24.88,26.68c1.33,1.43,1.25,3.66-.17,5-.68,.63-1.55,.95-2.41,.95Z"/></svg>