<?xml version="1.0" encoding="UTF-8"?><svg id="Layer_2" xmlns="http://www.w3.org/2000/svg" viewBox="0 0 84.43 57.64"><defs><style>.cls-1{fill:#240448;}</style></defs><g id="_ëîé_1"><path class="cls-1" d="M2.01,57.64l-2.01-6.78c6.05-1.8,19.7-6.35,29.88-13.37-5.03-2.5-9.67-5.95-13.59-10.22-4.62-5.04-6.47-9.98-5.49-14.69,.87-4.18,4.05-7.83,8.94-10.27,6.06-3.03,13.48-3.08,19.38-.14,5.34,2.66,8.87,7.36,9.95,13.24,1.36,7.4-1.05,13.79-5.51,19.23,3.9,.67,7.88,.7,11.77,.04,10.3-1.76,18.33-8.23,22.6-18.22l6.5,2.78c-5.25,12.27-15.16,20.23-27.91,22.41-6.28,1.07-12.76,.63-18.92-1.14-10.86,8.88-26.58,14.46-35.59,17.14ZM29.66,7.05c-2.31,0-4.65,.53-6.75,1.58-1.36,.68-4.59,2.57-5.18,5.4-.61,2.93,1.72,6.22,3.78,8.47,4.09,4.46,9.09,7.86,14.49,10,4.54-4.53,7.23-9.82,6.13-15.81-.86-4.67-3.82-7.03-6.15-8.19-1.93-.96-4.1-1.44-6.3-1.44Z"/></g></svg>