<?xml version="1.0" encoding="UTF-8"?><svg id="Layer_2" xmlns="http://www.w3.org/2000/svg" viewBox="0 0 84.48 58.74"><defs><style>.cls-1{fill:#240448;}</style></defs><g id="_ëîé_1"><path class="cls-1" d="M58.05,58.74c-13.66,0-26.95-6.09-31.7-19.25-.87-2.41-1.45-5-1.74-7.7-5.51-2.17-10.99-6.17-15.56-11.49C3.89,14.28,.59,7.12,0,.64L7.04,0c.46,4.97,3.21,10.84,7.38,15.69,2.57,2.99,6.16,6.17,10.15,8.3,.14-1.57,.37-3.17,.69-4.78,1.22-6.16,3.61-10.35,7.3-12.79,4.24-2.81,10.14-2.79,14.36,.05,4.22,2.84,6.46,8.3,5.45,13.28-.61,3.03-2.34,5.92-5,8.37-4.24,3.9-9.42,5.79-14.97,5.46-.12,0-.25-.02-.38-.03,.25,1.22,.57,2.4,.98,3.53,5.44,15.1,24.81,16.57,36.83,12.79,.41-.13,.81-.26,1.22-.41,3.42-1.23,6.46-2.88,9.01-4.93l4.42,5.52c-3.17,2.54-6.88,4.58-11.04,6.07-.49,.17-.98,.34-1.48,.5-4.46,1.4-9.2,2.12-13.91,2.12ZM31.49,26.4c.44,.06,.88,.11,1.32,.14,3.7,.22,6.89-.96,9.77-3.61,1.08-.99,2.45-2.59,2.85-4.57,.45-2.22-.59-4.75-2.47-6.02-1.88-1.27-4.62-1.28-6.5-.02-2.04,1.35-3.43,4.06-4.27,8.27-.39,1.98-.62,3.92-.7,5.8Z"/></g></svg>