<?xml version="1.0" encoding="UTF-8"?><svg id="_ëîé_1" xmlns="http://www.w3.org/2000/svg" viewBox="0 0 1483.67 1235.33"><defs><style>.cls-1{fill:#fccc6c;}.cls-2{fill:#fff;}.cls-3{fill:#44d4f4;}.cls-4{fill:#fc346c;}.cls-5{fill:#1f9dcb;}.cls-6{fill:#240448;}</style></defs><g><circle class="cls-5" cx="811.98" cy="616.74" r="516.64"/><circle class="cls-2" cx="811.98" cy="616.74" r="393.58" transform="translate(-198.28 754.8) rotate(-45)"/><circle class="cls-2" cx="811.98" cy="616.74" r="393.58" transform="translate(-198.28 754.8) rotate(-45)"/><path class="cls-4" d="M811.45,942.52c-27.17,0-54.31-3.37-80.65-10.16-1.33-.34-2.35-1.43-2.59-2.79-.25-1.36,.32-2.73,1.44-3.53l29.16-20.52c1.6-1.12,3.8-.74,4.92,.86,1.12,1.6,.74,3.8-.86,4.92l-22.8,16.05c23.8,5.52,47.79,8.2,71.54,8.2,112.42,0,219.59-59.87,277.21-160.85,33.02-57.88,46.98-123.39,40.36-189.46-.2-1.94,1.22-3.67,3.16-3.87,1.95-.2,3.67,1.22,3.87,3.16,6.77,67.54-7.5,134.51-41.25,193.67-18.21,31.91-41.35,60.23-68.79,84.16-26.52,23.13-56.52,41.72-89.17,55.26-39.84,16.52-82.72,24.89-125.55,24.89Z"/><rect class="cls-5" x="701.59" y="6.59" width="124.96" height="144.59" transform="translate(1532.14 89.67) rotate(174.91)"/><rect class="cls-5" x="917.51" y="31.26" width="124.96" height="144.59" transform="translate(80.86 -299.77) rotate(18.13)"/><polygon class="cls-5" points="1170.1 293.4 1065.94 219.5 1159.52 108.79 1254.95 189.46 1170.1 293.4"/><polygon class="cls-5" points="1191.92 336.94 1252.05 446.49 1386.39 362.46 1328.78 261.83 1191.92 336.94"/><rect class="cls-5" x="1284.19" y="468.96" width="124.96" height="144.59" transform="translate(1694.34 -867.86) rotate(81.96)"/><rect class="cls-5" x="1273.15" y="676.29" width="124.96" height="144.59" transform="translate(283.61 1861.03) rotate(-75.87)"/><rect class="cls-5" x="1189.12" y="858.01" width="124.96" height="144.59" transform="translate(2735.78 451.54) rotate(125.5)"/><rect class="cls-5" x="1034.7" y="1002.98" width="124.96" height="144.59" transform="translate(-402.4 741.7) rotate(-31.88)"/><rect class="cls-5" x="821.09" y="1079.68" width="124.96" height="144.59" transform="translate(1912.08 2176.62) rotate(172.38)"/><rect class="cls-5" x="591.09" y="1060.68" width="124.96" height="144.59" transform="translate(361.12 -141.88) rotate(17.06)"/><rect class="cls-5" x="396.63" y="953.2" width="124.96" height="144.59" transform="translate(136.53 2101.77) rotate(-139.2)"/><rect class="cls-5" x="260.37" y="773.24" width="124.96" height="144.59" transform="translate(951.95 194.84) rotate(64.93)"/><rect class="cls-5" x="209.79" y="561.88" width="124.96" height="144.59" transform="translate(-352.79 926.78) rotate(-91.85)"/><rect class="cls-5" x="244.05" y="354.41" width="124.96" height="144.59" transform="translate(813.81 289.95) rotate(110.61)"/><rect class="cls-5" x="345.45" y="186.21" width="124.96" height="144.59" transform="translate(-56.12 392.24) rotate(-48.44)"/><rect class="cls-5" x="500.17" y="65.46" width="124.96" height="144.59" transform="translate(1125.34 .16) rotate(152.5)"/><circle class="cls-3" cx="811.98" cy="616.74" r="16.18" transform="translate(130.36 1375.09) rotate(-85.27)"/></g><path class="cls-6" d="M305.59,533.22l-6.98-1.15c4.02-24.51,9.86-48.9,17.37-72.55l-90.48-41.94,55.53-119.79,90.59,42c2.93-4.65,5.94-9.27,8.97-13.78,7.67-11.38,15.89-22.6,24.48-33.4l-69.57-71.61,94.7-92,69.48,71.52c15.34-11.51,31.48-22.27,48.05-32.02l-39.34-91.65,121.33-52.08,39.39,91.76c22.73-6.48,46.06-11.45,69.44-14.79l-1.43-99.85,132.02-1.9,1.43,99.74c25.94,2.92,51.8,7.84,76.98,14.63l37.99-92.2,122.07,50.3-39.23,95.19-6.54-2.69,36.53-88.66-109-44.92-37.68,91.44-3.02-.83c-26.76-7.4-54.35-12.64-81.98-15.59l-3.12-.33-1.42-98.93-117.88,1.69,1.42,99.03-3.1,.42c-25.11,3.43-50.19,8.77-74.53,15.87l-3,.88-39.06-91-108.34,46.5,39.02,90.91-2.71,1.57c-18.17,10.55-35.84,22.32-52.52,35l-2.49,1.89-68.92-70.94-84.56,82.15,68.99,71.02-1.96,2.44c-9.17,11.39-17.94,23.29-26.08,35.37-3.56,5.29-7.09,10.74-10.49,16.21l-1.65,2.66-89.85-41.65-49.59,106.96,89.74,41.6-.97,2.98c-7.86,24.24-13.94,49.31-18.07,74.5Z"/><path class="cls-6" d="M782.08,1235.33l-5.84-99.61c-30.48-2.07-60.88-6.86-90.47-14.25l-36.27,92.89-122.99-48.02,36.3-92.99c-14.18-7.76-28.14-16.26-41.54-25.28-9.45-6.37-18.85-13.17-27.98-20.23l-70.69,70.51-93.25-93.47,72.81-72.63,4.99,5-67.8,67.64,83.26,83.47,70.1-69.93,2.46,1.93c9.77,7.65,19.88,15,30.05,21.85,14.07,9.48,28.77,18.37,43.69,26.42l2.75,1.48-36,92.22,109.82,42.88,35.97-92.13,3.03,.78c31.12,7.98,63.19,13.03,95.31,15.02l3.13,.19,5.79,98.79,117.69-6.89-5.79-98.87,3.08-.56c30.42-5.53,60.5-13.85,89.39-24.72l2.93-1.1,45.88,87.72,104.47-54.65-45.84-87.63,2.58-1.78c21.38-14.72,41.83-31.25,60.76-49.11l2.28-2.15,76.05,63.28,75.41-90.62-76.13-63.35,1.7-2.63c12.11-18.77,23.08-38.43,32.58-58.43l1.34-2.82,93.91,31.24,37.21-111.87-93.85-31.22,.62-3.07c4.88-24.14,8.04-48.86,9.38-73.48l.17-3.13,98.76-6.51-7.98-121.17,7.05-.46,8.45,128.22-99.57,6.56c-1.39,22.88-4.32,45.83-8.72,68.3l94.63,31.48-41.67,125.28-94.69-31.5c-8.87,18.37-18.94,36.43-29.98,53.77l76.76,63.88-84.45,101.49-76.67-63.8c-17.79,16.58-36.85,31.99-56.74,45.87l46.22,88.36-116.99,61.2-46.27-88.45c-27.42,10.13-55.85,17.99-84.61,23.4l5.84,99.69-131.81,7.72Z"/><polygon class="cls-1" points="666.4 339.12 673.45 352.45 686.36 359.74 673.45 367.03 666.4 380.35 659.34 367.03 646.44 359.74 659.34 352.45 666.4 339.12"/><polygon class="cls-3" points="1030.05 697.68 1037.11 711.01 1050.01 718.3 1037.11 725.59 1030.05 738.92 1022.99 725.59 1010.09 718.3 1022.99 711.01 1030.05 697.68"/><g><path class="cls-5" d="M582.24,593.45c-7.09,0-14.16-2.85-19.35-8.47-9.86-10.68-9.19-27.33,1.49-37.19l12.54-11.58c10.68-9.86,27.33-9.19,37.19,1.49,9.86,10.68,9.19,27.33-1.49,37.19l-12.54,11.58c-5.06,4.67-11.46,6.98-17.84,6.98Z"/><path class="cls-5" d="M538.49,569.08c-4.49,0-8.45-3.26-9.19-7.83-.82-5.08,2.63-9.87,7.71-10.69l38.08-6.17c5.08-.82,9.87,2.63,10.7,7.71,.82,5.08-2.63,9.87-7.71,10.69l-38.08,6.17c-.5,.08-1.01,.12-1.5,.12Z"/><path class="cls-5" d="M527.53,589.83c-4.36,0-8.26-3.07-9.14-7.51-1-5.05,2.28-9.96,7.33-10.96l44.04-8.74c5.05-1,9.96,2.28,10.96,7.33,1,5.05-2.28,9.96-7.33,10.96l-44.04,8.74c-.61,.12-1.22,.18-1.82,.18Z"/><path class="cls-5" d="M539.27,606.52c-4.09,0-7.84-2.71-8.98-6.84-1.37-4.96,1.54-10.1,6.5-11.47l35.41-9.78c4.96-1.37,10.1,1.54,11.47,6.5,1.37,4.96-1.54,10.1-6.5,11.47l-35.41,9.78c-.83,.23-1.67,.34-2.49,.34Z"/><path class="cls-6" d="M498.6,825.65l8.03,14.3,18.42-3.03,5.54,9.87-11.33,15.66,33.6,59.86,9.83-5.4c5.09-2.8,8.84-7.38,10.63-12.72,.8-2.38,1.21-4.91,1.18-7.49l-.13-10.22-.22-17.27,17.15-19.38,1.05-1.19-12.72-20.09-1.61-2.53-20.67-32.62-12.59,6.91-25.69,14.1-10.63,5.84-9.84,5.4Z"/><path class="cls-1" d="M1012.65,567.59l-116.94-1.07c-5.38-.05-10.62-1.75-15-4.86l-80.09-56.91,30.49-42.91,73.35,52.12,108.68,1-.48,52.63Z"/><rect class="cls-5" x="1012.27" y="515.15" width="25.67" height="52.64" transform="translate(-54.36 118.65) rotate(-6.45)"/><path class="cls-5" d="M1035.71,566.93c-4.6,0-8.61-3.41-9.23-8.09-.68-5.1,2.91-9.79,8.01-10.47l37.64-5.02c5.11-.68,9.79,2.91,10.47,8.01s-2.91,9.79-8.01,10.47l-37.64,5.02c-.42,.06-.83,.08-1.24,.08Z"/><path class="cls-5" d="M1040.94,548.2c-4.56,0-8.54-3.34-9.22-7.99-.74-5.1,2.79-9.83,7.89-10.57l44.44-6.45c5.09-.74,9.83,2.79,10.57,7.89,.74,5.1-2.79,9.83-7.89,10.57l-44.44,6.45c-.45,.07-.91,.1-1.35,.1Z"/><path class="cls-5" d="M1038.65,532.42c-4.28,0-8.13-2.96-9.09-7.31-1.11-5.03,2.06-10.01,7.09-11.12l35.86-7.94c5.03-1.11,10.01,2.06,11.12,7.09,1.11,5.03-2.06,10.01-7.09,11.12l-35.86,7.94c-.68,.15-1.36,.22-2.02,.22Z"/><path class="cls-5" d="M1025.94,533.58c-2.23,0-4.46-.79-6.25-2.4-3.82-3.45-4.12-9.35-.67-13.17l17.32-19.17c3.45-3.82,9.35-4.12,13.17-.67,3.82,3.45,4.12,9.35,.67,13.17l-17.32,19.17c-1.84,2.04-4.38,3.07-6.92,3.07Z"/><path class="cls-1" d="M1009.01,574.41c-.26,0-.52-.01-.78-.03-5.11-.43-8.91-4.91-8.48-10.02l3.88-46.6c.43-5.11,4.92-8.9,10.02-8.48,5.11,.43,8.91,4.91,8.48,10.02l-3.88,46.6c-.4,4.85-4.46,8.51-9.24,8.51Z"/><path class="cls-2" d="M976.84,556.05c.7,3.81,4.36,6.34,8.17,5.64,3.81-.7,6.34-4.36,5.64-8.17-.7-3.81-4.36-6.34-8.17-5.64-3.81,.7-6.34,4.36-5.64,8.17Z"/><path class="cls-6" d="M958.08,960.26l15.92-3.96,1.95-18.56,10.98-2.73,12.11,15.06,66.62-16.59-2.61-10.91-.06-.22c-2.01-8.06-8.27-14.4-16.32-16.5l-9.89-2.58-16.72-4.36-14.16-21.66-.87-1.33-22.74,6.96-2.86,.88-36.93,11.32,3.24,13.56,7.05,29.51,2.68,11.21,2.61,10.91Z"/><rect class="cls-6" x="914.3" y="798.83" width="72.65" height="89.03" transform="translate(-279.11 522.91) rotate(-26.97)"/><path class="cls-6" d="M930.46,840c-13.23,0-25.99-7.25-32.4-19.86l-44.84-88.12-102.59-63.41c-15.95-9.17-27.72-24.57-32.36-42.39-1.09-4.2-1.43-8.57-.98-12.89l4.09-39.51c2.07-19.96,19.92-34.45,39.87-32.39,19.96,2.06,34.46,19.91,32.39,39.87l-2.77,26.78,109.21,67.5c5.66,3.5,10.26,8.49,13.28,14.42l49.46,97.19c9.1,17.88,1.98,39.75-15.9,48.85-5.28,2.69-10.9,3.96-16.45,3.96Z"/><path class="cls-1" d="M937.4,902.04c-4.06,0-7.78-2.68-8.93-6.78-1.39-4.94,1.49-10.06,6.43-11.45l72.12-20.26c4.94-1.38,10.06,1.49,11.45,6.43,1.39,4.94-1.49,10.06-6.43,11.45l-72.12,20.26c-.84,.24-1.68,.35-2.52,.35Z"/><rect class="cls-6" x="571.72" y="762.92" width="75.92" height="72.65" transform="translate(-351.86 506.1) rotate(-35.71)"/><path class="cls-6" d="M640.53,813.42c-11.3,0-22.43-5.25-29.53-15.13-11.71-16.29-8-38.99,8.29-50.7l66.3-47.66,68.61-108.88c10.7-16.97,33.12-22.06,50.1-11.37,16.97,10.69,22.06,33.12,11.37,50.1l-72.39,114.88c-2.5,3.96-5.73,7.4-9.53,10.13l-72.06,51.79c-6.42,4.61-13.83,6.83-21.17,6.83Z"/><path class="cls-6" d="M801.57,643.21c-2.28,0-4.6-.22-6.92-.66l-40-7.72c-19.7-3.8-32.59-22.85-28.79-42.55,3.8-19.7,22.85-32.59,42.55-28.79l40,7.72c19.7,3.8,32.59,22.85,28.79,42.55-3.35,17.37-18.57,29.45-35.63,29.45Z"/><path class="cls-1" d="M599.83,857.49c-2.77,0-5.52-1.24-7.35-3.6l-42.47-54.8c-3.14-4.05-2.4-9.88,1.65-13.03,4.05-3.14,9.88-2.4,13.03,1.65l42.47,54.8c3.14,4.05,2.4,9.88-1.65,13.03-1.69,1.31-3.69,1.95-5.68,1.95Z"/><path class="cls-4" d="M720.06,570.16l117.55,29,16.18-82.74c4.8-26.12-5.91-52.93-27.92-67.79-10.86-7.34-23.95-11.62-38.05-11.62h0c-37.58,0-68.05,30.47-68.05,68.05l.29,65.11Z"/><path class="cls-5" d="M823.48,449.63l-1.59-31.88-1.42-20.48-.67-9.72c-.62-8.93-8.35-15.66-17.26-15.04-.7,.04-1.39,.14-2.07,.27-6.52,1.3-11.52,6.46-12.73,12.86-.25,1.33-.34,2.71-.24,4.13l2.36,34.36,.93,13.4c.62,8.92,33.3,21.03,32.69,12.1Z"/><path class="cls-4" d="M708.74,732.68c-4.77,12.36-.43,25.81,9.5,33.27l15.81-11.37c3.61-2.59,6.68-5.86,9.05-9.62l13.45-21.35c-3.5-3.8-8.08-6.72-13.49-8.22-14.09-3.89-29.06,3.65-34.32,17.28Z"/><polygon class="cls-2" points="786.08 425.23 829.46 449.53 823.49 456.83 784.78 451.19 786.08 425.23"/><path class="cls-5" d="M829.28,414.02h0c10.05-4.54,14.52-16.37,9.98-26.43l-6.82-15.09c-5.99-13.25-21.58-19.14-34.83-13.15h0c-13.25,5.99-19.14,21.58-13.15,34.83l1.59,3.52c7.43,16.44,26.78,23.75,43.22,16.32Z"/><path class="cls-5" d="M830.74,376.46l16.06,12.48c1.82,1.42,1.23,4.3-.99,4.89l-11.09,2.95-3.98-20.32Z"/><path class="cls-6" d="M806.28,374.23s.54,4.95-.07,7.34c-.8,3.1-3.03,5.28-6.04,6.33-3.78,1.33-8.41,1.3-12.4,1.37-9.04,.16-20.66-5.68-16.24-16.63,1.5-3.72,5.31-6.46,9.32-6.42-2.65,.39-5.52-.39-7.39-2.3-1.87-1.92-2.57-4.99-1.42-7.42,1.31-2.77,4.62-4.13,7.68-4.04,3.06,.09,5.95,1.34,8.76,2.58,.78-3.88,3.19-7.48,6.68-9.34,3.49-1.86,8.03-1.79,11.27,.48,1.03,.73,1.96,1.72,2.25,2.95,.28,1.23-.26,2.71-1.44,3.17-.59-3.76,1.8-7.77,5.39-9.03,3.59-1.26,7.96,.36,9.86,3.66,.5,.88,.83,1.91,.87,2.92-.26,.81-.95,2.19-.95,2.88,4.14,.69,12.43-4.14,7.6-8.98,4.83-.69,10.36,2.76,12.43,6.91,1.73,3.46,1.24,7.36-.76,10.58-4.4,7.09-13.27,8.43-20.8,9.73-4.32,.74-12.87,2.78-12.87,2.78l-1.61,.45-.11,.03Z"/><path class="cls-2" d="M837.62,602.58c-.27,0-.55-.03-.82-.1l-117.04-28.87c-1.83-.45-2.95-2.3-2.5-4.13,.45-1.83,2.3-2.95,4.13-2.5l117.04,28.87c1.83,.45,2.95,2.3,2.5,4.13-.38,1.56-1.78,2.6-3.31,2.6Z"/><circle class="cls-2" cx="807.86" cy="591.53" r="15.98" transform="translate(-97.29 163.45) rotate(-10.9)"/><path class="cls-4" d="M876.94,702.35c3.83,15.36,19.38,24.71,34.74,20.89,5.7-1.42,10.58-4.46,14.25-8.5l-12.59-24.73c-3.28-6.44-8.42-11.76-14.74-15.28l-7.81-4.34c-11.04,6.14-17.06,19.12-13.86,31.96Z"/><rect class="cls-1" x="814.28" y="507.61" width="28.53" height="28.53" transform="translate(1783.43 305.03) rotate(135)"/><rect class="cls-2" x="792.33" y="507.61" width="28.53" height="28.53" transform="translate(1745.97 320.54) rotate(135)"/><path class="cls-6" d="M841.62,395.1c-1.42-1.01-3.28-1.7-5.63-1.93-3.24-.32-6.55,.58-9.27,2.36-3.03,1.98-5.56,4.59-9.48,3.5-1.47-.41-2.85-1.12-4.21-1.8-3.3-1.65-6.44-3.75-9.31-6.07l-.02-.02s-15.67,7.54-15.68,7.54c-1.52,1.03,5.42,8.71,6.11,9.51,6.79,7.94,17.22,13.19,27.86,12.72,6.05-.27,12.41-2.23,17.22-5.99,6.48-5.07,8.6-15.44,2.43-19.82Z"/><path class="cls-5" d="M782.37,393.56c1.34,6.73,7.88,11.09,14.6,9.75s11.09-7.88,9.75-14.6c-1.34-6.73-7.88-11.09-14.6-9.75-6.73,1.34-11.09,7.88-9.75,14.6Z"/><path class="cls-1" d="M674.67,508.13c-13,0-24.3-9.63-26.06-22.86-1.91-14.41,8.22-27.64,22.63-29.55l86.62-11.48c14.4-1.91,27.64,8.22,29.55,22.63,1.91,14.41-8.22,27.64-22.63,29.55l-86.62,11.48c-1.17,.16-2.34,.23-3.49,.23Z"/><path class="cls-5" d="M567.55,620.48c-2.01,0-4.04-.65-5.74-1.98-4.05-3.17-4.77-9.04-1.59-13.09l19.95-25.48c3.17-4.05,9.04-4.77,13.09-1.59,4.05,3.17,4.77,9.04,1.59,13.09l-19.96,25.48c-1.84,2.35-4.58,3.58-7.35,3.58Z"/><rect class="cls-1" x="580.37" y="492.36" width="108.75" height="52.64" transform="translate(-183.49 567.98) rotate(-42.7)"/><path class="cls-1" d="M610.33,583.13c-2.52,0-5.04-1.02-6.87-3.04l-31.95-35.1c-3.45-3.79-3.17-9.66,.62-13.12,3.79-3.45,9.66-3.17,13.12,.62l31.95,35.11c3.45,3.79,3.17,9.66-.62,13.12-1.78,1.62-4.02,2.42-6.25,2.42Z"/><path class="cls-2" d="M597.11,525.8c-2.55,2.92-2.25,7.36,.67,9.91,2.92,2.55,7.36,2.25,9.91-.67,2.55-2.92,2.25-7.36-.67-9.91-2.92-2.55-7.36-2.25-9.91,.67Z"/><path class="cls-6" d="M1030.05,548.08c-1.12,0-2.14-.77-2.41-1.91-.32-1.33,.5-2.67,1.84-2.99,5.25-1.25,8.59-3.5,9.91-6.68,2.33-5.6-1.93-12.72-1.98-12.79-.61-1-.44-2.29,.41-3.1l11.02-10.42c1-.94,2.57-.9,3.51,.1,.94,1,.9,2.57-.1,3.51l-9.65,9.13c1.46,3.08,3.83,9.54,1.38,15.46-1.96,4.74-6.46,7.98-13.36,9.63-.19,.05-.39,.07-.58,.07Z"/></g><path class="cls-4" d="M756.56,959.15c-.95,0-1.89-.38-2.59-1.12l-24.88-26.68c-1.33-1.43-1.25-3.66,.17-5,1.43-1.33,3.66-1.25,5,.17l24.88,26.68c1.33,1.43,1.25,3.66-.17,5-.68,.63-1.55,.95-2.41,.95Z"/><g><path class="cls-4" d="M1339.14,430.24h-94.66c-1.95,0-3.53-1.58-3.53-3.53V242.81c0-1.95,1.58-3.53,3.53-3.53h94.66c1.95,0,3.53,1.58,3.53,3.53v183.89c0,1.95-1.58,3.53-3.53,3.53Zm-91.12-7.07h87.59V246.35h-87.59v176.82Z"/><rect class="cls-4" x="1094.64" y="289.37" width="94.66" height="137.34" transform="translate(2283.94 716.07) rotate(180)"/><rect class="cls-4" x="1389.01" y="152.03" width="94.66" height="274.67" transform="translate(2872.68 578.73) rotate(180)"/><g><polygon class="cls-6" points="1345.43 64.74 1398.1 111.18 1423.43 35.18 1345.43 64.74"/><path class="cls-6" d="M1103.38,229.47l-.72-7.03c.37-.04,37.49-4.01,89.57-23.5,48.02-17.97,118.96-53.2,184.23-118.95l5.02,4.98c-66.25,66.74-138.27,102.47-187.02,120.68-52.88,19.76-89.55,23.67-91.09,23.82Z"/></g></g><path class="cls-6" d="M190.26,983.66C85.35,983.66,0,898.31,0,793.4s85.35-190.26,190.26-190.26,190.26,85.35,190.26,190.26-85.35,190.26-190.26,190.26Zm0-373.45c-101.01,0-183.19,82.18-183.19,183.19s82.18,183.19,183.19,183.19,183.19-82.18,183.19-183.19-82.18-183.19-183.19-183.19Z"/><path class="cls-4" d="M190.26,793.6c-.67,0-1.35-.19-1.95-.59l-89.27-59.17c-1.63-1.08-2.07-3.27-.99-4.9,1.08-1.62,3.27-2.07,4.9-.99l89.27,59.17c1.63,1.08,2.07,3.27,.99,4.9-.68,1.03-1.8,1.58-2.95,1.58Z"/><path class="cls-4" d="M190.26,929.53c-34.98,0-68.76-13.62-93.96-37.64v21.45c0,1.95-1.58,3.53-3.53,3.53s-3.53-1.58-3.53-3.53v-30.08h0v-.02h0v-.02h0c0-.64,.19-1.24,.5-1.76h0v-.02h.01c.08-.14,.16-.26,.26-.38h0v-.02h.01c.38-.47,.88-.85,1.46-1.07,.5-.19,1.02-.27,1.53-.23l31.28,1.9c1.95,.12,3.43,1.79,3.31,3.74-.12,1.95-1.79,3.42-3.74,3.31l-22.06-1.34c23.83,22.41,55.59,35.11,88.48,35.11,71.16,0,129.06-57.9,129.06-129.06,0-9-.93-18-2.77-26.73-.4-1.91,.82-3.79,2.73-4.19,1.91-.41,3.78,.82,4.19,2.73,1.94,9.21,2.92,18.69,2.92,28.18,0,75.06-61.07,136.13-136.13,136.13Z"/><polygon class="cls-6" points="257.5 824.62 186.72 792.34 186.72 647.77 193.79 647.77 193.79 787.79 260.43 818.19 257.5 824.62"/><circle class="cls-4" cx="190.26" cy="790.07" r="15.52"/></svg>