<?xml version="1.0" encoding="UTF-8"?><svg id="Layer_2" xmlns="http://www.w3.org/2000/svg" viewBox="0 0 325.32 173.48"><defs><style>.cls-1{fill:#dce5f7;}</style></defs><g id="_ëîé_1"><path class="cls-1" d="M0,173.48H325.32c-2.19-27.24-20.01-73.71-23.33-79.07-1.35-2.17-2.53-4.18-3.51-5.74-15.18-24.1-57.08-40.17-76-11.27-13.21,20.2-2.22,59.56-29.74,69.62-31.56,11.54-39.5-29.95-42.31-51.24-3.45-26.15-2.87-52.93-10.58-78.38-3.27-7.62-8.71-16.33-17.42-17.42-8.71,0-16.33,6.53-19.6,14.16-9.65,23.45-12.31,48.74-15.84,73.64-2.87,20.19-6.79,64.74-33.64,67.25-14.26,1.32-27.16-24.13-40.37-12.85-8.38,7.15-7.93,22.11-12.99,31.29Z"/></g></svg>