<?xml version="1.0" encoding="UTF-8"?><svg id="Layer_2" xmlns="http://www.w3.org/2000/svg" viewBox="0 0 498.31 191.75"><defs><style>.cls-1{fill:#dce5f7;}</style></defs><g id="_ëîé_1"><path class="cls-1" d="M451.88,141.83c-6.46,3.04-10.9,8.66-17.25,11.88-32.95,16.69-31.07-43.55-30.93-60.96,.29-36.65-1.3-83.74-46.87-91.9-29.06-5.21-56.9,14.26-63.99,42.94-8.88,35.91,5.38,137.62-61.52,123.73-17.81-3.7-31.07-18.36-41.92-32.96-13.74-18.49-27.17-39.12-51.49-43.51-36.86-6.65-74.08,14.64-99.32,39.83C21.79,147.63,8.6,169.15,.16,191.31c0,.03-.14,.44-.16,.44,23.73-.03,47.47-.05,71.2-.08,31.46-.04,62.92-.1,94.39-.14,26.84-.04,332.72-.45,332.72-.25-1.87-22.64-14.42-64.51-46.43-49.45Z"/></g></svg>